/* XPM */
static char * close_active_xpm[] = {
"29 14 7 1",
" 	c None",
".	c #16E800",
"+	c #033C37",
"@	c #000000",
"#	c #0B9837",
"$	c #7BE870",
"%	c #11C414",
".............................",
".............................",
".............................",
"+...@@@@@@@@@@@@@@@@@@@@@@@@.",
"#...@$$$$$$$$$$$$$$$$$$$$$%@.",
"#...@$....................%@.",
"#...@$....................%@.",
"#...@$....................%@.",
"#...@$....................%@.",
"#...@$....................%@.",
"#...@$....................%@.",
"#...@$....................%@.",
"#...@$%%%%%%%%%%%%%%%%%%%%%@.",
"#...@@@@@@@@@@@@@@@@@@@@@@@@."};
