/* XPM */
static char * hide_pressed_xpm[] = {
"14 14 6 1",
" 	c None",
".	c #16E800",
"+	c #000000",
"@	c #010504",
"#	c #11C414",
"$	c #7BE870",
"..............",
"..............",
"..............",
".++++++++++++.",
".@##########+.",
".@#........$+.",
".@#........$+.",
".+#........$+.",
".+#........$+.",
".@#........$+.",
".@#........$+.",
".@#........$+.",
".@#$$$$$$$$$+.",
".@+++++++++++."};
