/* XPM */
static char * maximize_active_xpm[] = {
"17 14 7 1",
" 	c None",
".	c #16E800",
"+	c #000000",
"@	c #0B9837",
"#	c #010504",
"$	c #7BE870",
"%	c #11C414",
".................",
".................",
".................",
".++++++++++++...@",
".#$$$$$$$$$%+...@",
".#$........%+...@",
".#$........%+...@",
".#$........%+...@",
".#$........%+...@",
".#$........%+...@",
".#$........%+...@",
".#$........%+...@",
".#%%%%%%%%%%+...@",
".#+++++++++++...@"};
