/* XPM */
static char * menu_active_xpm[] = {
"14 14 6 1",
" 	c None",
".	c #16E800",
"+	c #000000",
"@	c #010504",
"#	c #7BE870",
"$	c #42E831",
"..............",
".++++++++++++.",
".@#########$+.",
".@#........$+.",
".@#........$+.",
".@#........$+.",
".@#........$+.",
".@#........$+.",
".@#........$+.",
".@#........$+.",
".@$$$$$$$$$$+.",
".@+++++++++++.",
"..............",
".............."};
