/* XPM */
static char * title_4_active_xpm[] = {
"18 23 8 1",
" 	c None",
".	c #7BE870",
"+	c #16E800",
"@	c #000000",
"#	c #06766C",
"$	c #033C37",
"%	c #0B9837",
"&	c #11C414",
"                  ",
"                  ",
"                  ",
"                  ",
"..................",
"++++++++++++++++++",
"++@@@@++++++++++++",
"++++@@++++++++++++",
"++++@@+++++++#$$$$",
"++++@@+++++++#%%%%",
"++++@@+++++++#%%%%",
"++++@@+++++++#%%%%",
"++++@@+++++++#%%%%",
"++++@@+++++++#%%%%",
"++++@@+++++++#%%%%",
"++++@@+++++++#%%%%",
"++++@@+++++++#%%%%",
"++++@@+++++++#%%%%",
"++++@@+++++++#####",
"++++@@++++++++++++",
"++@@@@++++++++++++",
"++++++++++++++++++",
"&&&&&&&&&&&&&&&&&&"};
