/* XPM */
static char * title_4_inactive_xpm[] = {
"18 23 8 1",
" 	c None",
".	c #7BE870",
"+	c #16E800",
"@	c #000000",
"#	c #06766C",
"$	c #033C37",
"%	c #158D5F",
"&	c #11C414",
"                  ",
"                  ",
"                  ",
"                  ",
"..................",
"++++++++++++++++++",
"++++@@@@++++++++++",
"++++@@++++++++++++",
"++++@@+++++++#$$$$",
"++++@@+++++++#%%%%",
"++++@@+++++++#%%%%",
"++++@@+++++++#%%%%",
"++++@@+++++++#%%%%",
"++++@@+++++++#%%%%",
"++++@@+++++++#%%%%",
"++++@@+++++++#%%%%",
"++++@@+++++++#%%%%",
"++++@@+++++++#%%%%",
"++++@@+++++++#####",
"++++@@++++++++++++",
"++++@@@@++++++++++",
"++++++++++++++++++",
"&&&&&&&&&&&&&&&&&&"};
