/* XPM */
static char * top_left_active_xpm[] = {
"6 23 4 1",
" 	c None",
".	c #7BE870",
"+	c #16E800",
"@	c #11C414",
"      ",
"      ",
"      ",
"      ",
"  ....",
"  .+++",
"  .+++",
"  .+++",
"  .+++",
"  .+++",
"  .+++",
"  .+++",
"  .+++",
"  .+++",
"  .+++",
"  .+++",
"  .+++",
"  .+++",
"  .+++",
"  .+++",
"  .+++",
"  .+++",
"  .+@@"};
