/* XPM */
static char * top_right_active_xpm[] = {
"6 23 5 1",
" 	c None",
".	c #7BE870",
"+	c #11C414",
"@	c #16E800",
"#	c #41D1A0",
"      ",
"      ",
"      ",
"      ",
"...+  ",
"@@@+  ",
"@@@+  ",
"@@@+  ",
"@@@+  ",
"@@@+  ",
"@@@+  ",
"@@@+  ",
"@@@+  ",
"@@@+  ",
"@@@+  ",
"@@@+  ",
"@@@+  ",
"@@@+  ",
"@@@+  ",
"@@@+  ",
"@@@+  ",
"@@@+  ",
"##@+  "};
